<?xml version="1.0" encoding="UTF-8"?>
<svg width="118" height="67" fill="none" version="1.1" viewBox="0 0 118 67" xmlns="http://www.w3.org/2000/svg">
 <g clip-path="url(#clip0_8398_4825)">
  <path d="m10.823 15.147h-2.9139c-4.5471 0-1.2488-9.6706 2.5937-9.6706h4.6111c0.7365 0 2.0494 0.12809 2.6899-1.6972l0.9606-2.8499h-6.3083c-3.4263 0-6.0841 1.2168-8.0054 3.2342-3.3303 3.4584-4.451 8.9021-3.6505 11.496 0.76852 2.4017 2.8179 3.9707 6.0521 4.0027l2.4977 0.0321h3.0741l0.7685-2.2736c0.5444-1.6331-0.7044-2.2735-2.3696-2.2735zm35.416-4.0027 0.9607-3.1061h-10.151c-1.6971 0-2.4336 0.48032-2.7218 1.441l-0.9607 3.1062h10.151c1.6972 0 2.4337-0.4804 2.7218-1.441zm-14.378 5.4437-0.9607 3.1061h10.151c1.6652 0 2.4337-0.4804 2.7219-1.441l0.9606-3.1061h-10.151c-1.6651 0-2.4336 0.4803-2.7218 1.441zm16.747-12.553 0.9606-3.1061h-10.151c-1.6971 0-2.4336 0.48032-2.7218 1.441l-0.9607 3.1061h10.151c1.6651 0 2.4337-0.4483 2.7219-1.441zm-15.306 0.64044c-0.4163-2.882-1.9533-3.7145-5.6999-3.7145h-6.7886l-3.9707 11.624h2.4977c1.505 0 2.2415 0.032 3.0421-2.1135l1.6651-4.9954h2.5297c2.1455 0 1.6651 2.7218 0.5764 5.3477-0.9606 2.3055-2.6578 4.3549-4.7072 4.3549h-4.1948c-1.6972 0-2.4657 0.4803-2.7859 1.441l-1.0567 3.1061h3.0741l3.042-0.032c2.6898-0.0321 4.8673-0.2242 7.4291-2.5297 2.7218-2.4657 5.8599-8.838 5.3476-12.489zm34.103-3.7465h-5.892l-5.5398 5.892c-0.6404 0.67246-1.3128 1.3769-1.9533 2.1775h-0.064l2.7859-8.0695h-4.8033l-6.4684 18.765h4.8033l2.0494-5.892 2.1454-1.8253 1.6972 5.3477c0.5123 1.6651 1.0567 2.3696 2.2415 2.3696h3.6825l-3.7786-10.471z" clip-rule="evenodd" fill="#09aa00" fill-rule="evenodd"/>
  <g fill="#1c1c1e">
   <path d="m50.53 28.5c-0.2562-1.5051-0.9287-2.6899-1.9534-3.5544-1.0247-0.8326-2.3696-1.2809-4.0027-1.2809-1.6011 0-3.2021 0.4163-4.7712 1.2488-1.5691 0.8326-2.978 1.9854-4.1628 3.4264-1.2169 1.4409-2.1455 3.1061-2.7539 4.8993-0.6084 1.8252-0.8005 3.5224-0.5444 4.9954 0.2562 1.505 0.8966 2.6898 1.9534 3.5544 1.0247 0.8325 2.3696 1.2808 4.0027 1.2808 1.6011 0 3.2021-0.4162 4.7712-1.2488 1.537-0.8326 2.946-1.9853 4.1628-3.4263 1.2169-1.441 2.1455-3.1061 2.7539-4.9314 0.6084-1.7932 0.8005-3.4583 0.5444-4.9633zm-4.8033 4.7712c-0.3522 1.0247-0.8646 1.9533-1.505 2.7539-0.6404 0.8005-1.3769 1.4409-2.2095 1.8893-1.6011 0.8966-3.3943 0.8966-4.387 0.032-0.4803-0.4163-0.7685-0.9927-0.8646-1.7612-0.096-0.7685 0.032-1.6652 0.3523-2.6898 0.3522-1.0247 0.8646-1.9534 1.505-2.7539 0.6404-0.8006 1.4089-1.441 2.2095-1.8893 0.8005-0.4483 1.6331-0.6724 2.4336-0.6724 0.8006 0 1.441 0.2241 1.9213 0.6404 0.4804 0.4163 0.7686 0.9927 0.8646 1.7612 0.1601 0.7685 0.032 1.6651-0.3202 2.6898z"/>
   <path d="m64.908 31.062c0.4803-1.4089 0.6084-2.6898 0.3843-3.7465-0.2242-1.0888-0.7686-1.9213-1.6652-2.4977-0.8645-0.5444-1.9853-0.8326-3.3622-0.8326h-5.6679l-0.6404 1.9533-1.6331 4.8994h2.8819c0.8646 0 1.6331-0.6405 1.9534-1.6011l0.3202-0.8966h1.4089c0.9287 0 1.5371 0.2241 1.8253 0.6404s0.2882 1.0247 0 1.8573c-0.2882 0.8645-0.7365 1.537-1.377 2.0173-0.6404 0.4804-1.4409 0.7045-2.4016 0.7045h-3.6825c-1.0567 0-2.0494 0.8005-2.4657 2.0174l-2.4336 7.2049h4.2909l1.6331-4.8994h1.6011c1.3769 0 2.6578-0.2882 3.8746-0.8005 1.2168-0.5444 2.2736-1.3449 3.1702-2.3696 0.8325-1.0567 1.537-2.2736 1.9853-3.6505z"/>
   <path d="m84.153 23.985c-0.8325 0-1.6331 0.6404-1.9533 1.6011l-5.7639 17.196h2.8819c0.8326 0 1.6332-0.6405 1.9534-1.6011l5.7639-17.196z"/>
   <path d="m98.082 23.985-3.3302 10.023-2.4337-10.023h-3.3943l-6.3083 18.797h4.2589l3.3623-10.023 2.4336 10.023h3.3623l6.3079-18.797z"/>
   <path d="m12.488 31.158h-4.2269c-0.64043 0-0.92863-0.6084-0.67245-1.3449 0.25617-0.7365 0.96065-1.3449 1.6011-1.3449h6.1162c0.8325 0 1.6331-0.6405 1.9533-1.6011l0.9607-2.882h-8.0695c-2.6898 0-5.7319 2.5938-6.8206 5.828-1.0887 3.2021 0.22415 5.8279 2.914 5.8279h4.2269c0.6404 0 0.9286 0.6084 0.6725 1.3449-0.2562 0.7365-0.9607 1.3449-1.6011 1.3449h-6.6285c-0.83257 0-1.6331 0.6405-1.9533 1.6011l-0.96065 2.882h8.5818c2.6898 0 5.7319-2.5938 6.8206-5.828 1.0888-3.2342-0.2241-5.8279-2.9139-5.8279z"/>
   <path d="m108.59 34.2-0.961 2.882h2.69l-0.32 0.8966c-0.833 0.4163-1.73 0.6404-2.594 0.6404-0.865 0-1.537-0.2241-2.05-0.6404-0.512-0.4163-0.8-0.9927-0.896-1.7612s0-1.6651 0.352-2.6898c0.352-1.0567 0.865-1.9854 1.505-2.7859 0.641-0.8006 1.409-1.441 2.242-1.8893 0.832-0.4483 1.697-0.6724 2.593-0.6724 1.377 0 2.306 0.5763 2.882 1.7932l0.192 0.4163 3.747-3.0101-0.16-0.3842c-0.416-1.0888-1.121-1.9214-2.082-2.4977-0.928-0.5444-2.113-0.8326-3.458-0.8326-1.601 0-3.234 0.4163-4.803 1.2168-1.569 0.8006-2.978 1.9533-4.195 3.3943s-2.145 3.1061-2.754 4.9314c-0.6083 1.8572-0.8004 3.5544-0.5762 5.0274 0.2562 1.505 0.8962 2.6898 1.9532 3.5544 1.025 0.8325 2.37 1.2488 4.003 1.2488 1.121 0 2.305-0.1921 3.522-0.6084 1.249-0.4163 2.402-0.9927 3.491-1.7292l0.16-0.096 2.689-8.0375h-5.283c-0.801 0.032-1.569 0.6725-1.889 1.6331z"/>
   <path d="m78.998 31.062c0.4803-1.4089 0.6084-2.6898 0.3842-3.7465-0.2241-1.0888-0.7685-1.9213-1.6651-2.4977-0.8646-0.5444-1.9853-0.8326-3.3623-0.8326h-5.6678l-0.2882 0.8646-2.0174 5.9881h2.882c0.8646 0 1.6331-0.6405 1.9533-1.6011l0.3202-0.8966h1.409c0.9286 0 1.537 0.2241 1.8252 0.6404s0.2882 1.0247 0 1.8573c-0.2882 0.8645-0.7365 1.537-1.3769 2.0173-0.6404 0.4804-1.441 0.7045-2.4016 0.7045h-3.6825c-1.0568 0-2.0494 0.8005-2.4657 2.0174l-2.4337 7.2049h4.291l1.6331-4.8994h1.601c1.377 0 2.6578-0.2882 3.8747-0.8005 1.2168-0.5444 2.2735-1.3449 3.1701-2.3696 0.8646-1.0567 1.5691-2.2736 2.0174-3.6505z"/>
   <path d="m30.324 23.985-2.3696 7.0448h-4.8352l2.3696-7.0448h-4.2909l-6.3083 18.797h4.2909l2.4657-7.301h4.8352l-2.4656 7.301h4.2909l6.3082-18.797z"/>
  </g>
 </g>
 <defs>
  <clipPath id="clip0_8398_4825">
   <rect transform="translate(0 .92972)" width="118" height="42.141" fill="#fff"/>
  </clipPath>
 </defs>
 <text transform="scale(.89659 1.1153)" x="-0.047837179" y="59.701309" fill="#ff00ff" font-size="28.748px" stroke-width="2.3957" xml:space="preserve"><tspan x="-0.047837179" y="59.701309" fill="#ff00ff" font-family="'Liberation Sans'" font-style="italic" font-weight="bold" stroke-width="2.3957">REVIEWS</tspan></text>
</svg>
